<svg width="38" height="38" viewBox="0 0 38 38" fill="none" xmlns="http://www.w3.org/2000/svg">
    <path d="M19.0015 0C16.4399 0.0179691 13.9406 0.791903 11.8172 2.22473C9.69378 3.65755 8.0407 5.68548 7.0653 8.05414C6.0899 10.4228 5.83563 13.0267 6.33436 15.5394C6.8331 18.052 8.06264 20.3614 9.86877 22.1779L19.0015 31.3655L28.1369 22.1779C29.9422 20.3612 31.1709 18.0519 31.6691 15.5396C32.1672 13.0273 31.9126 10.4239 30.9371 8.05576C29.9617 5.68761 28.3088 3.66014 26.1857 2.22757C24.0627 0.794986 21.5639 0.0210586 19.0028 0.00282031L19.0015 0ZM19.0015 18.7635C18.2455 18.7617 17.4974 18.611 16.7997 18.32C16.102 18.029 15.4685 17.6034 14.9353 17.0676C14.402 16.5318 13.9796 15.8962 13.692 15.1971C13.4044 14.498 13.2574 13.7491 13.2592 12.9932C13.2551 11.4669 13.8575 10.0015 14.9339 8.91933C16.0102 7.83718 17.4723 7.22693 18.9986 7.22282C20.5253 7.22656 21.9879 7.8366 23.0648 8.91875C24.1417 10.0009 24.7446 11.4665 24.7408 12.9932C24.7449 14.5187 24.1431 15.9835 23.0677 17.0655C21.9923 18.1476 20.5312 18.7583 19.0057 18.7635H18.9986H19.0015Z" fill="white"/>
    <path opacity="0.5" d="M19.0015 37.9984C15.8306 37.9984 13.2593 36.9189 13.2593 35.5861C13.2593 34.2547 15.8306 33.1738 19.0015 33.1738C22.1724 33.1738 24.7437 34.2547 24.7437 35.5861C24.7437 36.9175 22.1724 37.9984 19.0015 37.9984Z" fill="white"/>
</svg>
