<svg width="24" height="24" viewBox="0 0 24 24" fill="none" xmlns="http://www.w3.org/2000/svg">
    <path d="M15.8386 15.8798C16.1552 16.1962 16.1552 16.7095 15.8386 17.0259L13.407 19.4576C13.2551 19.6095 13.0488 19.695 12.8339 19.695C12.619 19.695 12.4127 19.6095 12.2609 19.4576L9.82922 17.0262C9.51258 16.7098 9.51258 16.1965 9.82922 15.8801C10.1456 15.5634 10.6589 15.5634 10.9753 15.8801L12.0234 16.9277V11.5898C12.0234 11.1422 12.3863 10.7794 12.8339 10.7794C13.2816 10.7794 13.6444 11.1422 13.6444 11.5898V16.9277L14.6923 15.8798C15.0089 15.5632 15.5222 15.5632 15.8386 15.8798ZM14.4551 4.29492C11.2793 4.29492 8.57906 6.32531 7.57711 9.1582H7.16086H7.16039C4.47445 9.1582 2.29688 11.3355 2.29688 14.0215C2.29688 16.7074 4.47445 18.885 7.16039 18.885C7.16578 18.885 7.1707 18.8845 7.17609 18.8845H9.39516L8.68289 18.1723C8.45109 17.9405 8.2718 17.6698 8.14875 17.367C8.13492 17.3325 8.1218 17.298 8.10961 17.2634H7.16016C6.7125 17.2634 6.28617 17.1727 5.89828 17.0086C4.73461 16.5162 3.91805 15.364 3.91805 14.021C3.91805 12.2304 5.36977 10.7789 7.16016 10.7789H8.84156C9.23508 8.02992 11.5971 5.91563 14.4551 5.91563C17.5887 5.91563 20.1288 8.45578 20.1288 11.5894C20.1288 13.5209 19.1634 15.2271 17.689 16.252C17.6946 16.3186 17.6972 16.3854 17.6972 16.4527C17.6972 16.7677 17.6372 17.0752 17.5191 17.367C17.3962 17.6698 17.2167 17.9405 16.9849 18.1723L16.5902 18.567C19.5773 17.6541 21.75 14.8755 21.75 11.5898C21.75 7.56094 18.4837 4.29492 14.4551 4.29492Z" fill="#040000"/>
</svg>
