<svg width="24" height="24" viewBox="0 0 24 24" fill="none" xmlns="http://www.w3.org/2000/svg">
    <path d="M11.375 4.5C11.5676 4.5001 11.7528 4.57429 11.8922 4.7072C12.0316 4.84012 12.1145 5.02157 12.1238 5.21396C12.133 5.40634 12.0679 5.59492 11.9419 5.7406C11.8159 5.88629 11.6387 5.97791 11.447 5.9965L11.375 6H7.875C7.395 5.99996 6.93326 6.184 6.58491 6.51422C6.23655 6.84444 6.0281 7.29568 6.0025 7.775L6 7.875V16.625C5.99996 17.105 6.184 17.5667 6.51422 17.9151C6.84444 18.2635 7.29568 18.4719 7.775 18.4975L7.875 18.5H16.625C17.105 18.5 17.5667 18.316 17.9151 17.9858C18.2635 17.6556 18.4719 17.2043 18.4975 16.725L18.5 16.625V13.125C18.5001 12.9324 18.5743 12.7472 18.7072 12.6078C18.8401 12.4684 19.0216 12.3855 19.214 12.3762C19.4063 12.367 19.5949 12.4321 19.7406 12.5581C19.8863 12.6841 19.9779 12.8613 19.9965 13.053L20 13.125V16.625C20 17.4996 19.6605 18.3401 19.053 18.9693C18.4456 19.5985 17.6176 19.9673 16.7435 19.998L16.625 20H7.875C7.0004 20 6.15994 19.6605 5.53073 19.053C4.90153 18.4456 4.53271 17.6176 4.502 16.7435L4.5 16.625V7.875C4.49998 7.0004 4.83948 6.15994 5.44695 5.53073C6.05443 4.90153 6.88244 4.53271 7.7565 4.502L7.875 4.5H11.375Z" fill="black"/>
    <path d="M17.7933 5.30843L17.8513 5.35943L19.1238 6.59043L19.1718 6.64093C19.2955 6.73008 19.3891 6.85481 19.4401 6.99851C19.4911 7.1422 19.4971 7.29803 19.4573 7.44522C19.4174 7.59241 19.3337 7.72397 19.2172 7.82236C19.1007 7.92075 18.957 7.9813 18.8053 7.99593L18.7333 7.99943H17.2498C16.1447 7.99946 15.0831 8.42991 14.29 9.19952C13.497 9.96912 13.0349 11.0174 13.0018 12.1219L12.9998 12.2494V12.4994C12.9997 12.692 12.9255 12.8772 12.7926 13.0166C12.6596 13.156 12.4782 13.2389 12.2858 13.2482C12.0934 13.2575 11.9048 13.1923 11.7592 13.0663C11.6135 12.9404 11.5218 12.7631 11.5033 12.5714L11.4998 12.4994V12.2494C11.4998 9.19643 13.8793 6.69943 16.8848 6.51093L16.8083 6.43743C16.6693 6.30395 16.587 6.12209 16.5785 5.92956C16.57 5.73704 16.6359 5.54864 16.7626 5.40342C16.8893 5.25821 17.067 5.16734 17.2589 5.14965C17.4508 5.13197 17.6422 5.18882 17.7933 5.30843Z" fill="black"/>
</svg>
