<svg width="64" height="65" viewBox="0 0 64 65" fill="none" xmlns="http://www.w3.org/2000/svg">
    <path d="M9.99951 13.9455V23.8854H23.5177V10.3672H13.5779C12.629 10.3679 11.7193 10.7451 11.0484 11.416C10.3774 12.087 10.0002 12.9967 9.99951 13.9455ZM20.602 20.9697H12.9152V13.9455C12.9152 13.7698 12.985 13.6012 13.1093 13.477C13.2336 13.3527 13.4021 13.2829 13.5779 13.2829H20.602V20.9697ZM25.2406 23.8854H38.7588V10.3672H25.2406V23.8854ZM28.1563 13.2829H35.8431V20.9697H28.1563V13.2829ZM50.4216 10.3672H40.4817V23.8854H53.9999V13.9455C53.9992 12.9967 53.622 12.087 52.9511 11.416C52.2802 10.7451 51.3704 10.3679 50.4216 10.3672ZM51.0842 20.9697H43.3974V13.2829H50.4216C50.5973 13.2829 50.7659 13.3527 50.8902 13.477C51.0144 13.6012 51.0842 13.7698 51.0842 13.9455V20.9697ZM9.99951 39.259H23.5177V25.7408H9.99951V39.259ZM12.9152 28.6565H20.602V36.3433H12.9152V28.6565ZM25.2406 39.259H38.7588V25.7408H25.2406V39.259ZM28.1563 28.6565H35.8431V36.3433H28.1563V28.6565ZM40.4817 39.259H53.9999V25.7408H40.4817V39.259ZM43.3974 28.6565H51.0842V36.3433H43.3974V28.6565ZM9.99951 51.0543C10.0002 52.0031 10.3774 52.9129 11.0484 53.5838C11.7193 54.2547 12.629 54.632 13.5779 54.6327H23.5177V41.1145H9.99951V51.0543ZM12.9152 44.0302H20.602V51.717H13.5779C13.4021 51.717 13.2336 51.6472 13.1093 51.5229C12.985 51.3986 12.9152 51.2301 12.9152 51.0543V44.0302ZM25.2406 54.6327H38.7588V41.1145H25.2406V54.6327ZM28.1563 44.0302H35.8431V51.717H28.1563V44.0302ZM40.4817 54.6327H50.4216C51.3704 54.632 52.2802 54.2547 52.9511 53.5838C53.622 52.9129 53.9992 52.0031 53.9999 51.0543V41.1145H40.4817V54.6327ZM43.3974 44.0302H51.0842V51.0543C51.0842 51.2301 51.0144 51.3986 50.8902 51.5229C50.7659 51.6472 50.5973 51.717 50.4216 51.717H43.3974V44.0302Z" fill="#4183F0"/>
    <rect x="25" y="10" width="14" height="14" fill="#FFB724"/>
</svg>
